<svg width="14" height="24" viewBox="0 0 14 24" fill="none" xmlns="http://www.w3.org/2000/svg">
<path d="M13.2054 17.5212L8.16361 12L13.2054 6.47944C13.3637 6.30559 13.4445 6.07393 13.4276 5.83904C13.4107 5.60391 13.2984 5.38594 13.1163 5.23646L6.98738 0.195941C6.7305 -0.015418 6.37533 -0.0598087 6.07463 0.0825508C5.77392 0.224301 5.5823 0.526739 5.5823 0.85927V9.17363L2.06391 5.32046C1.74426 4.97021 1.20042 4.94555 0.85017 5.26548C0.499919 5.5854 0.475263 6.12868 0.795185 6.47921L5.5823 11.7217V12.2784L0.795232 17.5212C0.475028 17.8712 0.499685 18.4148 0.850216 18.7349C1.20075 19.0551 1.74408 19.0305 2.06395 18.6797L5.58207 14.827V23.1408C5.58207 23.473 5.77397 23.7758 6.07439 23.9178C6.19125 23.9728 6.31669 24.0001 6.44128 24.0001C6.63689 24.0001 6.83049 23.9336 6.98743 23.8047L13.1163 18.7641C13.2984 18.6144 13.4107 18.3964 13.4276 18.1615C13.4445 17.9267 13.3643 17.695 13.2054 17.5212ZM7.30069 2.6784L11.326 5.98857L7.30069 10.3968V2.6784ZM7.30069 21.3217V13.6036L11.326 18.0115L7.30069 21.3217Z" fill="black"/>
</svg>
