<svg width="368" height="892" viewBox="0 0 368 892" fill="none" xmlns="http://www.w3.org/2000/svg">
<rect width="368" height="892" fill="#313131"/>
<rect width="368" height="892" rx="20" fill="white"/>
<path d="M82.3373 75.3997H76.9742C77.5392 74.7226 77.88 73.8519 77.88 72.9031C77.88 70.7509 76.1292 69 73.9771 69C71.8249 69 70.074 70.7509 70.074 72.9031C70.074 73.8519 70.4148 74.7226 70.9799 75.3997H65.6167L62.2812 93H85.6728L82.3373 75.3997ZM73.9771 70.4062C75.3537 70.4062 76.4738 71.5263 76.4738 72.9031C76.4738 74.2797 75.3537 75.3997 73.9771 75.3997C72.6003 75.3997 71.4803 74.2797 71.4803 72.9031C71.4803 71.5263 72.6003 70.4062 73.9771 70.4062ZM66.7814 76.806H81.1726L83.975 91.5938H63.979L66.7814 76.806Z" fill="black"/>
<path d="M74.0055 81.4026H72.4094L70.1779 83.631V81.4026H69.0309V87.0225H70.1779V85.1017L70.7563 84.5378L72.5044 87.0225H73.985L71.5753 83.7497L74.0055 81.4026Z" fill="black"/>
<path d="M76.2747 85.0007H77.7903V85.617C77.6685 85.7058 77.5026 85.793 77.2955 85.8766C77.0436 85.9786 76.7817 86.0303 76.5177 86.0303C76.2154 86.0303 75.9261 85.9627 75.6575 85.8294C75.3986 85.701 75.2063 85.5092 75.0701 85.2426C74.9294 84.9677 74.8582 84.6152 74.8582 84.195C74.8582 83.8546 74.9186 83.5355 75.0371 83.2474C75.1041 83.0872 75.1995 82.938 75.3207 82.8034C75.4363 82.6752 75.5936 82.569 75.7878 82.4879C75.9858 82.4053 76.2277 82.3634 76.5071 82.3634C76.7347 82.3634 76.9432 82.4028 77.1269 82.4804C77.3016 82.5542 77.4356 82.6511 77.5251 82.7681C77.6222 82.8948 77.7062 83.0775 77.7751 83.3113L77.8395 83.5302L78.8955 83.2405L78.8386 83.0191C78.7417 82.6419 78.5959 82.329 78.4052 82.0886C78.2094 81.8419 77.939 81.6482 77.601 81.5127C77.2736 81.3814 76.9044 81.3149 76.5036 81.3149C75.9539 81.3149 75.4592 81.4307 75.0331 81.6588C74.5969 81.8925 74.2585 82.2534 74.028 82.7314C73.8037 83.1962 73.6902 83.7026 73.6902 84.2373C73.6902 84.7786 73.8052 85.277 74.0324 85.7184C74.2648 86.1703 74.6132 86.5203 75.0684 86.7587C75.5139 86.9921 76.0145 87.1106 76.5563 87.1106C76.9579 87.1106 77.3547 87.0375 77.7357 86.8932C78.1131 86.7506 78.4832 86.5356 78.8356 86.2546L78.9233 86.1848V83.9271L76.2747 83.9313V85.0007Z" fill="black"/>
<path d="M109.25 73.5C106.355 73.5 104 75.855 104 78.75C104 81.444 108.212 86.2155 108.692 86.751C108.834 86.9085 109.037 87 109.25 87C109.463 87 109.666 86.9085 109.808 86.751C110.288 86.2155 114.5 81.444 114.5 78.75C114.5 75.855 112.145 73.5 109.25 73.5ZM109.25 85.1055C107.612 83.163 105.5 80.181 105.5 78.75C105.5 76.683 107.183 75 109.25 75C111.317 75 113 76.683 113 78.75C113 80.1795 110.888 83.163 109.25 85.1055Z" fill="black"/>
<path d="M109.25 76.5C108.01 76.5 107 77.5095 107 78.75C107 79.9905 108.01 81 109.25 81C110.49 81 111.5 79.9905 111.5 78.75C111.5 77.5095 110.49 76.5 109.25 76.5ZM109.25 79.5C108.836 79.5 108.5 79.164 108.5 78.75C108.5 78.336 108.836 78 109.25 78C109.664 78 110 78.336 110 78.75C110 79.164 109.664 79.5 109.25 79.5Z" fill="black"/>
<path d="M127.25 69H121.25C120.836 69 120.5 69.336 120.5 69.75V74.25V77.25C120.5 77.664 120.836 78 121.25 78C121.664 78 122 77.664 122 77.25V75H127.25C127.664 75 128 74.664 128 74.25V69.75C128 69.336 127.664 69 127.25 69ZM126.5 73.5H122V70.5H126.5V73.5Z" fill="black"/>
<path d="M125 85.5H117.5C116.674 85.5 116 84.8265 116 84C116 83.1735 116.674 82.5 117.5 82.5H119.138C119.448 83.3715 120.274 84 121.25 84C122.491 84 123.5 82.9905 123.5 81.75C123.5 80.5095 122.491 79.5 121.25 79.5C120.274 79.5 119.448 80.1285 119.138 81H117.5C115.845 81 114.5 82.3455 114.5 84C114.5 85.6545 115.845 87 117.5 87H125C125.826 87 126.5 87.6735 126.5 88.5C126.5 89.3265 125.826 90 125 90H111.362C111.051 89.1285 110.227 88.5 109.25 88.5C108.01 88.5 107 89.5095 107 90.75C107 91.9905 108.01 93 109.25 93C110.227 93 111.051 92.3715 111.362 91.5H125C126.655 91.5 128 90.1545 128 88.5C128 86.8455 126.655 85.5 125 85.5ZM121.25 81C121.664 81 122 81.336 122 81.75C122 82.164 121.664 82.5 121.25 82.5C120.836 82.5 120.5 82.164 120.5 81.75C120.5 81.336 120.836 81 121.25 81ZM109.25 91.5C108.836 91.5 108.5 91.164 108.5 90.75C108.5 90.336 108.836 90 109.25 90C109.664 90 110 90.336 110 90.75C110 91.164 109.664 91.5 109.25 91.5Z" fill="black"/>
<g clip-path="url(#clip0)">
<path d="M164.205 86.5212L159.164 81L164.205 75.4794C164.364 75.3056 164.445 75.0739 164.428 74.839C164.411 74.6039 164.298 74.3859 164.116 74.2365L157.987 69.1959C157.731 68.9846 157.375 68.9402 157.075 69.0826C156.774 69.2243 156.582 69.5267 156.582 69.8593V78.1736L153.064 74.3205C152.744 73.9702 152.2 73.9456 151.85 74.2655C151.5 74.5854 151.475 75.1287 151.795 75.4792L156.582 80.7217V81.2784L151.795 86.5212C151.475 86.8712 151.5 87.4148 151.85 87.7349C152.201 88.0551 152.744 88.0305 153.064 87.6797L156.582 83.827V92.1408C156.582 92.473 156.774 92.7758 157.074 92.9178C157.191 92.9728 157.317 93.0001 157.441 93.0001C157.637 93.0001 157.83 92.9336 157.987 92.8047L164.116 87.7641C164.298 87.6144 164.411 87.3964 164.428 87.1615C164.444 86.9267 164.364 86.695 164.205 86.5212ZM158.301 71.6784L162.326 74.9886L158.301 79.3968V71.6784ZM158.301 90.3217V82.6036L162.326 87.0115L158.301 90.3217Z" fill="black"/>
</g>
<g clip-path="url(#clip1)">
<path d="M210.08 76.2274V74.1261C210.08 73.7363 209.764 73.4202 209.374 73.4202H206.096C205.706 73.4202 205.39 73.7363 205.39 74.1261V76.2274C205.03 76.2596 204.748 76.5617 204.748 76.9301V80.7258C204.748 81.5907 205.451 82.2943 206.316 82.2943H207.029V89.8141C207.029 90.7924 206.233 91.5882 205.255 91.5882H197.538C196.56 91.5882 195.764 90.7924 195.764 89.8141V88.2941H197.265C197.655 88.2941 197.971 87.9781 197.971 87.5882V85.298H198.721C199.889 85.298 200.839 84.348 200.839 83.1804V76.7782C200.839 75.8261 200.207 75.0189 199.341 74.7533V72.3327C199.341 71.9429 199.025 71.6268 198.635 71.6268H197.647V69.7059C197.647 69.316 197.331 69 196.941 69C196.551 69 196.235 69.316 196.235 69.7059V71.6268H193.881V69.7059C193.881 69.316 193.565 69 193.176 69C192.786 69 192.47 69.316 192.47 69.7059V71.6268H191.482C191.092 71.6268 190.776 71.9429 190.776 72.3327V74.7533C189.91 75.0189 189.278 75.826 189.278 76.7782V83.1804C189.278 84.348 190.228 85.298 191.396 85.298H192.145V87.5882C192.145 87.9781 192.461 88.2941 192.851 88.2941H194.352V89.8141C194.352 91.5708 195.782 93 197.538 93H205.255C207.012 93 208.441 91.5708 208.441 89.8141V82.2943H209.153C210.018 82.2943 210.722 81.5907 210.722 80.7258V76.9301C210.722 76.5618 210.44 76.2597 210.08 76.2274ZM197.929 73.0386V74.6605H192.188V73.0386H197.929ZM190.69 83.1804V76.7782C190.69 76.389 191.006 76.0723 191.396 76.0723H198.721C199.11 76.0723 199.427 76.389 199.427 76.7782V83.1804C199.427 83.5696 199.11 83.8862 198.721 83.8862C198.425 83.8862 191.732 83.8862 191.396 83.8862C191.006 83.8862 190.69 83.5696 190.69 83.1804ZM193.557 85.298H196.56V86.8823H193.557V85.298ZM208.668 74.832V76.2242H206.802V74.832H208.668ZM209.31 80.7258C209.31 80.8122 209.24 80.8825 209.153 80.8825C209.067 80.8825 207.115 80.8825 206.316 80.8825C206.23 80.8825 206.16 80.8122 206.16 80.7258V77.636H209.31V80.7258Z" fill="black"/>
<path d="M194.164 80.6852H194.88L194.568 81.409C194.413 81.767 194.578 82.1823 194.936 82.3367C195.295 82.4911 195.71 82.3256 195.864 81.968L196.601 80.2588C196.802 79.7928 196.459 79.2735 195.953 79.2735H195.237L195.549 78.5497C195.703 78.1917 195.538 77.7763 195.18 77.622C194.822 77.4677 194.407 77.6328 194.253 77.9907L193.516 79.6998C193.315 80.1657 193.657 80.6852 194.164 80.6852Z" fill="black"/>
</g>
<path d="M254 70.7812H230V88.2266H244.764V91.2543L247.388 89.9725L250.013 91.2543V88.2266H254V70.7812ZM247.388 85.413C246.07 85.413 244.998 84.3406 244.998 83.0224C244.998 81.7042 246.07 80.6318 247.388 80.6318C248.707 80.6318 249.779 81.7042 249.779 83.0224C249.779 84.3406 248.707 85.413 247.388 85.413ZM247.388 88.4075L246.171 89.0023V86.6177C246.553 86.7477 246.962 86.8193 247.388 86.8193C247.814 86.8193 248.224 86.7477 248.606 86.6177V89.0023L247.388 88.4075ZM252.594 86.8204H250.013V85.7626C250.734 85.071 251.185 84.0987 251.185 83.0224C251.185 80.9288 249.482 79.2255 247.388 79.2255C245.295 79.2255 243.592 80.9288 243.592 83.0224C243.592 84.0987 244.042 85.0712 244.764 85.7626V86.8204H231.406V72.1875H252.594V86.8204Z" fill="black"/>
<path d="M232.814 76.4106H251.186V77.8169H232.814V76.4106Z" fill="black"/>
<path d="M234.925 73.5959H249.075V75.0022H234.925V73.5959Z" fill="black"/>
<path d="M232.814 84.0057H239.654V85.4119H232.814V84.0057Z" fill="black"/>
<path d="M232.814 81.1908H239.654V82.597H232.814V81.1908Z" fill="black"/>
<path d="M104.536 135H98V131H86V135H79.464C77.554 135 76 136.554 76 138.464V187.536C76 189.446 77.554 191 79.464 191H104.536C106.446 191 108 189.446 108 187.536V138.464C108 136.554 106.446 135 104.536 135ZM78 150H106V162H78V150ZM78 164H106V176H78V164ZM88 133H96V135H88V133ZM79.464 137H86H98H104.536C105.344 137 106 137.656 106 138.464V148H78V138.464C78 137.656 78.656 137 79.464 137ZM104.536 189H79.464C78.656 189 78 188.344 78 187.536V178H106V187.536C106 188.344 105.344 189 104.536 189Z" fill="black"/>
<g clip-path="url(#clip2)">
<path d="M172.404 138.413C171.428 137.861 170.273 137.879 169.314 138.457C169.268 138.484 169.224 138.516 169.184 138.55L155.634 150.013H145C144.447 150.013 144 150.46 144 151.013V170.013C144 170.279 144.105 170.533 144.293 170.72C144.481 170.907 144.734 171.013 145 171.013L155.61 171.008L169.153 183.448C169.203 183.494 169.257 183.534 169.314 183.568C169.806 183.865 170.351 184.014 170.896 184.014C171.413 184.013 171.929 183.88 172.404 183.612C173.403 183.048 174 182.018 174 180.857V141.169C174 140.008 173.403 138.978 172.404 138.413ZM172 180.857C172 181.288 171.783 181.667 171.421 181.872C171.266 181.959 170.873 182.127 170.421 181.898L157 169.569V165.013C157 164.46 156.553 164.013 156 164.013C155.447 164.013 155 164.46 155 165.013V169.009L146 169.013V152.013H155V156.013C155 156.566 155.447 157.013 156 157.013C156.553 157.013 157 156.566 157 156.013V151.477L170.405 140.137C170.866 139.895 171.265 140.067 171.421 140.155C171.783 140.36 172 140.739 172 141.169V180.857Z" fill="black"/>
<path d="M182.797 142.066C182.274 141.889 181.706 142.169 181.528 142.692C181.351 143.214 181.631 143.783 182.154 143.961C189.255 146.372 194.026 153.024 194.026 160.514C194.026 167.997 189.264 174.65 182.177 177.068C181.655 177.246 181.375 177.814 181.554 178.338C181.696 178.753 182.084 179.015 182.5 179.015C182.607 179.015 182.716 178.998 182.823 178.961C190.719 176.268 196.025 168.855 196.025 160.515C196.026 152.166 190.71 144.753 182.797 142.066Z" fill="black"/>
<path d="M187.026 160.513C187.026 154.541 183.017 149.211 177.277 147.551C176.744 147.4 176.193 147.703 176.039 148.235C175.886 148.765 176.191 149.32 176.723 149.473C181.612 150.886 185.027 155.426 185.027 160.513C185.027 165.6 181.612 170.14 176.723 171.553C176.192 171.706 175.886 172.261 176.039 172.791C176.166 173.229 176.565 173.514 177 173.514C177.092 173.514 177.185 173.501 177.277 173.475C183.018 171.815 187.026 166.485 187.026 160.513Z" fill="black"/>
</g>
<path d="M249.634 168.989C250.675 168.908 251.624 168.377 252.24 167.53L261.603 154.586C261.89 154.189 261.847 153.641 261.499 153.293C261.151 152.946 260.603 152.903 260.206 153.189L247.26 162.555C246.416 163.169 245.885 164.118 245.804 165.159C245.723 166.2 246.1 167.219 246.837 167.956C247.508 168.628 248.413 169 249.354 169C249.447 169 249.54 168.996 249.634 168.989ZM247.798 165.315C247.833 164.858 248.067 164.441 248.435 164.173L256.332 158.46L250.621 166.355C250.351 166.726 249.934 166.959 249.477 166.995C249.022 167.025 248.575 166.867 248.25 166.542C247.928 166.219 247.762 165.771 247.798 165.315Z" fill="black"/>
<path d="M272.034 150.564C272.024 150.543 272.024 150.521 272.013 150.5C272.001 150.48 271.982 150.469 271.969 150.45C270.958 148.716 269.762 147.103 268.404 145.641L270.552 143.494L271.966 144.908L276.208 140.665L271.966 136.423L267.723 140.665L269.138 142.08L266.99 144.227C265.528 142.869 263.916 141.672 262.181 140.661C262.162 140.648 262.151 140.629 262.131 140.617C262.11 140.605 262.088 140.606 262.067 140.595C258.974 138.813 255.499 137.626 251.794 137.191V136H253.294C254.673 136 255.794 134.879 255.794 133.5C255.794 132.121 254.672 131 253.293 131H244.293C242.914 131 241.793 132.121 241.793 133.5C241.793 134.879 242.914 136 244.293 136H245.793V137.156C244.713 137.271 243.635 137.447 242.569 137.691C242.031 137.814 241.694 138.351 241.818 138.889C241.941 139.427 242.478 139.765 243.016 139.64C243.936 139.429 244.865 139.27 245.796 139.163L246.869 139.08C247.197 139.055 247.499 139.037 247.793 139.023V141C247.793 141.553 248.24 142 248.793 142C249.346 142 249.793 141.553 249.793 141V139.03C253.554 139.203 257.098 140.213 260.249 141.875L259.263 143.582C258.987 144.061 259.151 144.672 259.629 144.948C259.786 145.039 259.958 145.082 260.128 145.082C260.474 145.082 260.81 144.903 260.995 144.582L261.978 142.879C265.107 144.864 267.765 147.522 269.75 150.651L268.047 151.634C267.57 151.91 267.406 152.521 267.683 153C267.869 153.321 268.204 153.5 268.55 153.5C268.72 153.5 268.892 153.457 269.049 153.366L270.756 152.38C272.441 155.576 273.454 159.178 273.605 162.999H271.63C271.077 162.999 270.63 163.446 270.63 163.999C270.63 164.552 271.077 164.999 271.63 164.999H273.605C273.454 168.82 272.441 172.422 270.756 175.618L269.049 174.632C268.571 174.356 267.959 174.518 267.683 174.998C267.407 175.477 267.571 176.088 268.049 176.364L269.752 177.347C267.767 180.476 265.109 183.134 261.98 185.119L260.997 183.416C260.72 182.936 260.107 182.773 259.631 183.05C259.152 183.326 258.988 183.938 259.265 184.416L260.251 186.123C257.1 187.785 253.556 188.795 249.795 188.968V187C249.795 186.447 249.348 186 248.795 186C248.242 186 247.795 186.447 247.795 187V188.976C246.198 188.921 244.596 188.721 243.019 188.359C242.481 188.23 241.944 188.572 241.821 189.11C241.697 189.648 242.034 190.185 242.572 190.308C244.568 190.768 246.607 191 248.63 191C248.679 191 248.726 190.997 248.775 190.996C248.782 190.996 248.787 191 248.793 191C248.801 191 248.808 190.995 248.816 190.995C253.623 190.962 258.133 189.664 262.035 187.422C262.066 187.408 262.099 187.401 262.129 187.383C262.149 187.371 262.16 187.352 262.179 187.339C266.218 184.985 269.593 181.614 271.952 177.578C271.971 177.551 271.995 177.53 272.012 177.5C272.024 177.479 272.023 177.457 272.033 177.436C274.317 173.476 275.63 168.89 275.63 164C275.63 159.11 274.317 154.524 272.034 150.564ZM271.965 139.251L273.379 140.665L271.965 142.08L270.55 140.665L271.965 139.251ZM247.793 137.021V134H244.293C244.018 134 243.793 133.775 243.793 133.5C243.793 133.225 244.018 133 244.293 133H253.293C253.568 133 253.793 133.225 253.793 133.5C253.793 133.775 253.568 134 253.293 134H249.793V137.021C249.445 137.007 249.113 137 248.793 137C248.765 137 248.733 137.002 248.705 137.002C248.68 137.002 248.655 137 248.63 137C248.466 137 248.302 137.011 248.138 137.014C248.022 137.017 247.913 137.016 247.793 137.021Z" fill="black"/>
<path d="M239.793 145H234.793C234.24 145 233.793 145.447 233.793 146C233.793 146.553 234.24 147 234.793 147H239.793C240.346 147 240.793 146.553 240.793 146C240.793 145.447 240.346 145 239.793 145Z" fill="black"/>
<path d="M239.793 152H229.793C229.24 152 228.793 152.447 228.793 153C228.793 153.553 229.24 154 229.793 154H239.793C240.346 154 240.793 153.553 240.793 153C240.793 152.447 240.346 152 239.793 152Z" fill="black"/>
<path d="M239.793 159H224.793C224.24 159 223.793 159.447 223.793 160C223.793 160.553 224.24 161 224.793 161H239.793C240.346 161 240.793 160.553 240.793 160C240.793 159.447 240.346 159 239.793 159Z" fill="black"/>
<path d="M239.793 166H220.793C220.24 166 219.793 166.447 219.793 167C219.793 167.553 220.24 168 220.793 168H239.793C240.346 168 240.793 167.553 240.793 167C240.793 166.447 240.346 166 239.793 166Z" fill="black"/>
<path d="M239.793 173H226.793C226.24 173 225.793 173.447 225.793 174C225.793 174.553 226.24 175 226.793 175H239.793C240.346 175 240.793 174.553 240.793 174C240.793 173.447 240.346 173 239.793 173Z" fill="black"/>
<path d="M239.793 180H232.793C232.24 180 231.793 180.447 231.793 181C231.793 181.553 232.24 182 232.793 182H239.793C240.346 182 240.793 181.553 240.793 181C240.793 180.447 240.346 180 239.793 180Z" fill="black"/>
<g clip-path="url(#clip3)">
<path d="M73.9708 226C65.716 226 59 233.276 59 242.259C59.0318 244.342 59.6029 246.381 60.6576 248.178C61.156 249.028 61.5827 249.918 61.9334 250.839C62.166 251.516 61.9428 252.266 61.3779 252.705C60.395 253.491 59.8254 254.683 59.8317 255.942C59.8278 257.324 60.5114 258.619 61.6556 259.395C62.067 259.674 62.3173 260.136 62.3268 260.633V267.585C62.3268 272.171 65.6844 275.903 69.8122 275.903C73.94 275.903 77.2976 272.171 77.2976 267.585C77.285 264.16 78.7745 260.901 81.373 258.67C86.2442 254.605 89.0244 248.562 88.9415 242.218C88.9415 233.276 82.2255 226 73.9708 226ZM80.2917 257.406C77.3233 259.953 75.621 263.674 75.6342 267.585C75.6342 271.254 73.0218 274.239 69.8122 274.239C66.6027 274.239 63.9903 271.254 63.9903 267.585V260.633C63.9768 259.603 63.4713 258.642 62.6304 258.047C61.9198 257.583 61.4925 256.79 61.4951 255.942C61.4894 255.176 61.8398 254.452 62.4433 253.982C63.5506 253.095 63.9734 251.603 63.4962 250.267C63.1132 249.259 62.6466 248.286 62.1014 247.356C61.1849 245.797 60.6893 244.027 60.6634 242.218C60.6634 234.193 66.6334 227.663 73.9708 227.663C81.3081 227.663 87.2781 234.193 87.2781 242.218C87.3542 248.074 84.788 253.653 80.2917 257.406Z" fill="black"/>
<path d="M73.9707 230.159C69.3356 230.159 65.3833 233.445 63.8488 238.04C63.838 238.067 63.8305 238.094 63.8222 238.123C63.3837 239.457 63.1592 240.852 63.1569 242.257C63.1569 243.255 63.1569 246.307 65.064 248.214C65.3903 248.529 65.9091 248.525 66.2299 248.204C66.5507 247.883 66.5552 247.364 66.24 247.038C65.5567 246.279 65.1179 245.331 64.9808 244.318C65.1147 244.31 65.2469 244.299 65.3858 244.299C69.2034 244.298 72.3073 247.791 72.3073 252.082C72.3073 252.481 72.2882 252.855 72.2574 253.224C71.8433 253.666 71.4028 254.083 70.9383 254.472C68.5159 256.456 67.1733 259.467 67.3171 262.595C67.3171 263.055 67.6894 263.427 68.1488 263.427C68.6081 263.427 68.9805 263.055 68.9805 262.595C68.8374 259.958 69.9646 257.412 72.0129 255.744C74.9473 253.492 76.6072 249.957 76.4659 246.26C76.4659 241.054 72.5485 236.812 67.7329 236.812C67.1797 236.814 66.6282 236.872 66.087 236.987C67.5326 233.918 70.5799 231.922 73.9707 231.822C79.0151 231.822 83.1195 236.502 83.1195 242.255C83.1849 246.787 81.2194 251.111 77.7617 254.041C77.6469 254.14 77.5196 254.246 77.3816 254.362C75.7265 255.738 72.284 258.604 71.4806 265.831C71.432 266.286 71.7607 266.695 72.2158 266.745C72.2462 266.75 72.2767 266.753 72.3073 266.754C72.731 266.753 73.0866 266.435 73.1332 266.014C73.8626 259.451 76.8426 256.972 78.4445 255.64C78.5917 255.517 78.7273 255.404 78.8487 255.299C82.6768 252.057 84.8537 247.271 84.783 242.255C84.783 235.585 79.9324 230.159 73.9707 230.159ZM67.7329 238.476C71.6311 238.476 74.8025 241.969 74.8025 246.26C74.8402 247.834 74.5277 249.397 73.8876 250.835C73.3295 246.211 69.7349 242.634 65.3875 242.634C65.1954 242.634 65.0107 242.648 64.8253 242.662C64.8253 242.502 64.8253 242.363 64.8253 242.255C64.8256 241.143 64.9846 240.036 65.2977 238.969C66.0689 238.645 66.8966 238.478 67.7329 238.476Z" fill="black"/>
<path d="M100.585 245.129C100.649 242.508 101.761 240.022 103.672 238.226C103.904 238.02 104.002 237.702 103.926 237.401C103.85 237.1 103.613 236.866 103.311 236.795C103.008 236.723 102.692 236.826 102.489 237.062C100.268 239.165 98.983 242.071 98.922 245.129C98.983 248.188 100.268 251.094 102.489 253.197C102.692 253.432 103.008 253.535 103.311 253.464C103.613 253.393 103.85 253.159 103.926 252.858C104.002 252.557 103.904 252.239 103.672 252.032C101.761 250.237 100.649 247.751 100.585 245.129Z" fill="black"/>
<path d="M106.129 240.349C105.964 240.203 105.748 240.128 105.527 240.14C105.307 240.153 105.101 240.253 104.954 240.418C102.456 243.062 102.456 247.197 104.954 249.841C105.152 250.063 105.453 250.163 105.744 250.102C106.035 250.042 106.272 249.831 106.365 249.549C106.459 249.267 106.395 248.957 106.197 248.735C104.26 246.721 104.26 243.537 106.197 241.524C106.344 241.359 106.419 241.143 106.406 240.923C106.393 240.702 106.294 240.496 106.129 240.349Z" fill="black"/>
<path d="M108.689 242.909C108.381 242.568 107.856 242.541 107.514 242.848C106.815 243.399 106.407 244.239 106.407 245.129C106.407 246.019 106.815 246.86 107.514 247.411C107.734 247.616 108.048 247.688 108.335 247.596C108.622 247.505 108.837 247.266 108.898 246.971C108.958 246.676 108.855 246.372 108.627 246.175C108.305 245.919 108.103 245.54 108.071 245.129C108.103 244.719 108.305 244.34 108.627 244.084C108.968 243.777 108.996 243.251 108.689 242.909Z" fill="black"/>
<path d="M96.4269 245.129C96.4269 241.47 98.0662 237.933 101.168 234.913C101.38 234.705 101.466 234.399 101.392 234.111C101.319 233.822 101.097 233.595 100.81 233.515C100.524 233.435 100.216 233.514 100.003 233.722C96.5766 237.062 94.7635 241.007 94.7635 245.129C94.7635 249.252 96.5766 253.197 100.003 256.537C100.332 256.859 100.859 256.853 101.181 256.524C101.502 256.195 101.497 255.668 101.168 255.346C98.0662 252.325 96.4269 248.789 96.4269 245.129Z" fill="black"/>
<path d="M92.2684 245.129C92.2684 240.56 94.1996 236.158 97.855 232.404C98.063 232.191 98.1415 231.883 98.061 231.597C97.9805 231.31 97.7532 231.088 97.4647 231.014C97.1762 230.941 96.8703 231.027 96.6623 231.24C92.7 235.315 90.6049 240.118 90.6049 245.129C90.6049 250.14 92.7 254.943 96.6623 259.019C96.9839 259.348 97.5115 259.355 97.8408 259.033C98.1702 258.711 98.1765 258.184 97.855 257.854C94.1996 254.1 92.2684 249.699 92.2684 245.129Z" fill="black"/>
</g>
<path d="M154.283 231H137.717C135.888 231 134.4 232.488 134.4 234.317V271.683C134.4 273.512 135.888 275 137.717 275H154.283C156.112 275 157.6 273.512 157.6 271.683V234.317C157.6 232.488 156.112 231 154.283 231ZM156 271.683C156 272.63 155.23 273.4 154.283 273.4H137.717C136.77 273.4 136 272.63 136 271.683V234.317C136 233.37 136.77 232.6 137.717 232.6H154.283C155.23 232.6 156 233.37 156 234.317V271.683H156Z" fill="black"/>
<path d="M150.4 227H141.6C141.158 227 140.8 227.358 140.8 227.8V231.8C140.8 232.242 141.158 232.6 141.6 232.6H150.4C150.842 232.6 151.2 232.242 151.2 231.8V227.8C151.2 227.358 150.842 227 150.4 227ZM149.6 231H142.4V228.6H149.6V231Z" fill="black"/>
<path d="M151.875 248.97C151.728 248.739 151.473 248.6 151.2 248.6H146.4V241.4C146.4 241.025 146.139 240.7 145.773 240.619C145.404 240.538 145.034 240.722 144.875 241.062L139.275 253.062C139.159 253.309 139.179 253.599 139.325 253.83C139.472 254.061 139.727 254.2 140 254.2H144.8V261.4C144.8 261.775 145.061 262.1 145.427 262.181C145.485 262.194 145.543 262.2 145.6 262.2C145.906 262.2 146.191 262.024 146.325 261.738L151.925 249.738C152.041 249.491 152.021 249.201 151.875 248.97ZM144.8 252.6H141.256L144.8 245.006V252.6ZM146.4 257.794V250.2H149.944L146.4 257.794Z" fill="black"/>
<path d="M220.8 237.4H218.4V229.4C218.4 228.04 217.36 227 216 227C214.64 227 213.6 228.04 213.6 229.4V237.4H202.4V229.4C202.4 228.04 201.36 227 200 227C198.64 227 197.6 228.04 197.6 229.4V237.4H195.2C194.72 237.4 194.4 237.72 194.4 238.2V244.28C194.4 248.28 195.92 252.12 198.64 255.08C201.04 257.8 202.4 261.32 202.4 264.92V267C202.4 269.24 204.16 271 206.4 271H207.2V274.2C207.2 274.68 207.52 275 208 275C208.48 275 208.8 274.68 208.8 274.2V271H209.6C211.84 271 213.6 269.24 213.6 267V265C213.6 261.32 214.88 257.88 217.36 255.16C220.08 252.2 221.6 248.28 221.6 244.28V238.2C221.6 237.72 221.28 237.4 220.8 237.4ZM215.2 229.4C215.2 228.92 215.52 228.6 216 228.6C216.48 228.6 216.8 228.92 216.8 229.4V237.4H215.2V229.4ZM199.2 229.4C199.2 229 199.52 228.6 200 228.6C200.48 228.6 200.8 228.92 200.8 229.4V237.4H199.2V229.4H199.2ZM220 244.2C220 247.88 218.72 251.32 216.24 254.04C213.52 257 212 260.92 212 264.92V267C212 268.36 210.96 269.4 209.6 269.4H206.4C205.04 269.4 204 268.36 204 267V265C204 261 202.48 257.08 199.76 254.12C197.36 251.4 196 247.88 196 244.28V239H198.4H201.6H214.4H217.6H220V244.2Z" fill="black"/>
<path d="M211.2 247.8H206.72L210.96 243.56C211.28 243.24 211.28 242.76 210.96 242.44C210.64 242.12 210.16 242.12 209.84 242.44L204.24 248.04C204 248.28 203.92 248.6 204.08 248.92C204.16 249.24 204.48 249.4 204.8 249.4H209.28L205.04 253.64C204.72 253.96 204.72 254.44 205.04 254.76C205.2 254.92 205.36 255 205.6 255C205.84 255 206 254.92 206.16 254.76L211.76 249.16C212 248.92 212.08 248.6 211.92 248.28C211.84 247.96 211.52 247.8 211.2 247.8Z" fill="black"/>
<g clip-path="url(#clip4)">
<path d="M86.4138 416.655C84.4828 414.448 81.1724 414.448 79.2414 416.379L69.0345 426.586L66.8276 424.379C64.8966 422.448 61.5862 422.448 59.6552 424.379H59.3793C57.4483 426.31 57.4483 429.621 59.3793 431.552L65.4483 437.621C66.5517 438.724 67.931 439 69.0345 439C70.4138 439 71.5172 438.448 72.6207 437.621L86.4138 423.827C88.3448 421.896 88.3448 418.586 86.4138 416.655Z" fill="#0D0E0F"/>
</g>
<g clip-path="url(#clip5)">
<path d="M74.2667 373L81.2 366.067C82.2667 365 82.2667 363.4 81.2 362.467L80.6667 361.933C79.6 360.867 78 360.867 77.0667 361.933L70 368.733L63.0667 361.8C62 360.733 60.4 360.733 59.3333 361.8L58.8 362.333C57.7333 363.4 57.7333 365 58.8 365.933L65.7333 373L58.8 379.933C57.7333 381 57.7333 382.6 58.8 383.533L59.3333 384.2C60.4 385.267 62 385.267 62.9333 384.2L70 377.267L76.9333 384.2C78 385.267 79.6 385.267 80.5333 384.2L81.0667 383.667C82.1333 382.6 82.1333 381 81.0667 380.067L74.2667 373Z" fill="#0D0E0F"/>
</g>
<path d="M71.9359 617.845C71.8375 617.859 71.7344 617.878 71.6359 617.892C71.7344 617.873 71.8328 617.859 71.9359 617.845Z" fill="black"/>
<path d="M72.175 617.803C72.1281 617.812 72.0812 617.822 72.0297 617.827C72.0812 617.822 72.1281 617.812 72.175 617.803Z" fill="black"/>
<path d="M71.3641 617.92C71.2469 617.934 71.1297 617.944 71.0125 617.953C71.1297 617.948 71.2469 617.934 71.3641 617.92Z" fill="black"/>
<path d="M71.5984 617.892C71.5422 617.902 71.4859 617.906 71.4297 617.911C71.4813 617.906 71.5422 617.902 71.5984 617.892Z" fill="black"/>
<path d="M72.5031 617.737C72.4609 617.747 72.4188 617.756 72.3766 617.766C72.4188 617.756 72.4609 617.747 72.5031 617.737Z" fill="black"/>
<path d="M73.3141 617.536C73.2813 617.545 73.2437 617.555 73.2109 617.564C73.2437 617.555 73.2766 617.545 73.3141 617.536Z" fill="black"/>
<path d="M73.0656 617.602C73.0281 617.611 72.9906 617.62 72.9531 617.63C72.9953 617.625 73.0281 617.616 73.0656 617.602Z" fill="black"/>
<path d="M72.7469 617.686C72.7094 617.695 72.6672 617.705 72.6297 617.714C72.6672 617.7 72.7094 617.691 72.7469 617.686Z" fill="black"/>
<path d="M71.0078 617.958C70.9469 617.963 70.8812 617.967 70.8203 617.972C70.8812 617.967 70.9469 617.963 71.0078 617.958Z" fill="black"/>
<path d="M82 606C82 599.372 76.6281 594 70 594C63.3719 594 58 599.372 58 606C58 612.628 63.3719 618 70 618C70.0703 618 70.1406 618 70.2109 617.995V608.658H67.6328V605.653H70.2109V603.441C70.2109 600.877 71.7766 599.48 74.0641 599.48C75.1609 599.48 76.1031 599.559 76.375 599.597V602.278H74.8C73.5578 602.278 73.3141 602.869 73.3141 603.736V605.648H76.2906L75.9016 608.653H73.3141V617.536C78.3297 616.097 82 611.48 82 606Z" fill="black"/>
<path d="M70.7922 617.972C70.6656 617.981 70.5437 617.986 70.4172 617.991C70.5437 617.986 70.6656 617.981 70.7922 617.972Z" fill="black"/>
<path d="M70.4125 617.991C70.3469 617.991 70.2813 617.995 70.2156 617.995C70.2766 617.995 70.3422 617.995 70.4125 617.991Z" fill="black"/>
<g clip-path="url(#clip6)">
<path d="M82 307H60.0633C58.8688 307 58 307.869 58 309.063V309.389C58 310.475 58.8688 311.344 60.0633 311.344H82.1086C83.1946 311.344 84.1719 310.475 84.1719 309.281V309.063C84.0633 307.869 83.1946 307 82 307Z" fill="#0D0E0F"/>
<path d="M82 316.774H60.0633C58.8688 316.774 58 317.751 58 318.837V319.163C58 320.249 58.8688 321.226 60.0633 321.226H82.1086C83.1946 321.226 84.1719 320.357 84.1719 319.163V318.837C84.0633 317.751 83.1946 316.774 82 316.774Z" fill="#0D0E0F"/>
<path d="M82 326.548H60.0633C58.9774 326.548 58 327.416 58 328.611V328.937C58 330.023 58.8688 331 60.0633 331H82.1086C83.1946 331 84.1719 330.131 84.1719 328.937V328.611C84.0633 327.525 83.1946 326.548 82 326.548Z" fill="#0D0E0F"/>
</g>
<path d="M72.2969 660C72.2969 661.27 71.2703 662.297 70 662.297C68.7297 662.297 67.7031 661.27 67.7031 660C67.7031 658.73 68.7297 657.703 70 657.703C71.2703 657.703 72.2969 658.73 72.2969 660Z" fill="#B3B3B3"/>
<path d="M75.3719 655.936C75.2594 655.636 75.0859 655.364 74.8563 655.144C74.6359 654.914 74.3641 654.741 74.0641 654.628C73.8203 654.534 73.4547 654.422 72.7844 654.389C72.0578 654.356 71.8375 654.347 70 654.347C68.1578 654.347 67.9422 654.352 67.2156 654.389C66.5453 654.422 66.1797 654.534 65.9359 654.628C65.6359 654.741 65.3641 654.914 65.1437 655.144C64.9141 655.364 64.7406 655.636 64.6281 655.936C64.5344 656.18 64.4219 656.545 64.3891 657.216C64.3562 657.942 64.3469 658.158 64.3469 660C64.3469 661.837 64.3562 662.058 64.3891 662.784C64.4219 663.455 64.5297 663.82 64.6281 664.064C64.7406 664.364 64.9141 664.636 65.1437 664.856C65.3641 665.086 65.6359 665.259 65.9359 665.372C66.1797 665.466 66.5453 665.578 67.2156 665.611C67.9422 665.644 68.1578 665.653 70 665.653C71.8422 665.653 72.0578 665.648 72.7844 665.611C73.4547 665.578 73.8203 665.47 74.0641 665.372C74.6641 665.142 75.1422 664.664 75.3719 664.064C75.4656 663.82 75.5781 663.455 75.6109 662.784C75.6438 662.058 75.6531 661.837 75.6531 660C75.6531 658.158 75.6484 657.942 75.6109 657.216C75.5781 656.545 75.4656 656.18 75.3719 655.936ZM70 663.539C68.0453 663.539 66.4609 661.955 66.4609 660C66.4609 658.045 68.0453 656.461 70 656.461C71.9547 656.461 73.5391 658.045 73.5391 660C73.5391 661.955 71.9547 663.539 70 663.539ZM73.6797 657.15C73.225 657.15 72.8547 656.78 72.8547 656.325C72.8547 655.87 73.225 655.5 73.6797 655.5C74.1344 655.5 74.5047 655.87 74.5047 656.325C74.5047 656.78 74.1344 657.15 73.6797 657.15Z" fill="#B3B3B3"/>
<path d="M70 648C63.3719 648 58 653.372 58 660C58 666.628 63.3719 672 70 672C76.6281 672 82 666.628 82 660C82 653.372 76.6281 648 70 648ZM76.8484 662.841C76.8156 663.572 76.6984 664.073 76.5297 664.514C76.1734 665.438 75.4422 666.173 74.5141 666.53C74.0781 666.698 73.5766 666.816 72.8406 666.848C72.1047 666.881 71.8703 666.891 70 666.891C68.1297 666.891 67.8953 666.881 67.1594 666.848C66.4281 666.816 65.9266 666.698 65.4859 666.53C65.0266 666.356 64.6094 666.084 64.2672 665.733C63.9156 665.391 63.6437 664.973 63.4703 664.514C63.3016 664.078 63.1844 663.577 63.1516 662.841C63.1188 662.105 63.1094 661.87 63.1094 660C63.1094 658.13 63.1188 657.895 63.1516 657.159C63.1844 656.428 63.3016 655.927 63.4703 655.486C63.6437 655.027 63.9156 654.609 64.2672 654.267C64.6094 653.916 65.0266 653.644 65.4859 653.47C65.9266 653.302 66.4234 653.184 67.1594 653.152C67.8953 653.119 68.1297 653.109 70 653.109C71.8703 653.109 72.1047 653.119 72.8406 653.152C73.5719 653.184 74.0734 653.302 74.5141 653.47C74.9734 653.644 75.3906 653.916 75.7328 654.267C76.0844 654.609 76.3562 655.027 76.5297 655.486C76.6984 655.927 76.8156 656.423 76.8484 657.159C76.8813 657.895 76.8906 658.13 76.8906 660C76.8906 661.87 76.8813 662.105 76.8484 662.841Z" fill="#B3B3B3"/>
<path d="M96 469C82.7826 469 58 479 58 507.333C58 535.667 96 564 96 564C96 564 134 535.667 134 507.333C134 479 109.217 469 96 469Z" fill="#E01F3D"/>
<path d="M96 513C99.3 513 102 510.3 102 507C102 503.7 99.3 501 96 501C92.7 501 90 503.7 90 507C90 510.3 92.7 513 96 513ZM96 487C94 487 91.9 487.3 90 487.9V499C94.4 495.7 100.7 496.6 104 501C107.3 505.4 106.4 511.7 102 515C97.6 518.3 91.3 517.4 88 513C86.7 511.3 86 509.2 86 507V489.7C76.4 495.2 73.2 507.4 78.7 517C84.2 526.6 96.4 529.8 106 524.3C115.6 518.8 118.8 506.6 113.3 497C109.8 490.8 103.2 487 96 487Z" fill="white"/>
<g clip-path="url(#clip7)">
<path d="M81.9481 720.596C81.8802 720.391 81.4483 720.09 80.6528 719.692C80.4372 719.567 80.1301 719.397 79.7328 719.181C79.335 718.965 78.974 718.766 78.6504 718.584C78.3261 718.402 78.0222 718.226 77.7384 718.056C77.693 718.022 77.551 717.923 77.3123 717.758C77.0735 717.593 76.872 717.471 76.707 717.391C76.5422 717.312 76.3802 717.272 76.2211 717.272C75.9939 717.272 75.7101 717.434 75.3693 717.758C75.0285 718.082 74.7159 718.434 74.432 718.815C74.148 719.195 73.8468 719.547 73.5289 719.871C73.2106 720.195 72.949 720.357 72.7447 720.357C72.6422 720.357 72.5143 720.329 72.361 720.272C72.2078 720.215 72.0913 720.167 72.0113 720.128C71.932 720.087 71.7959 720.008 71.6026 719.889C71.409 719.769 71.3013 719.704 71.2786 719.692C69.7218 718.829 68.3867 717.84 67.273 716.727C66.1596 715.613 65.1708 714.278 64.3073 712.721C64.2959 712.698 64.2304 712.59 64.1112 712.397C63.9918 712.204 63.9122 712.068 63.8724 711.988C63.8327 711.908 63.7844 711.792 63.7277 711.638C63.671 711.485 63.6425 711.357 63.6425 711.255C63.6425 711.05 63.8044 710.789 64.1283 710.471C64.4522 710.153 64.8045 709.852 65.185 709.568C65.5659 709.284 65.9179 708.971 66.2418 708.63C66.5657 708.289 66.7276 708.005 66.7276 707.778C66.7276 707.619 66.6878 707.457 66.6083 707.292C66.5288 707.127 66.4067 706.926 66.2418 706.687C66.0769 706.449 65.9775 706.307 65.9434 706.261C65.7731 705.977 65.5972 705.673 65.4151 705.349C65.2331 705.025 65.0344 704.664 64.8184 704.267C64.6026 703.869 64.4323 703.562 64.3071 703.347C63.9096 702.551 63.6086 702.119 63.404 702.051C63.3244 702.017 63.205 702 63.0461 702C62.7391 702 62.3386 702.057 61.8443 702.171C61.3499 702.284 60.9608 702.403 60.6767 702.528C60.1085 702.767 59.5063 703.46 58.8699 704.608C58.2903 705.676 58.0006 706.733 58.0006 707.778C58.0006 708.085 58.0205 708.383 58.0602 708.673C58.1 708.963 58.171 709.289 58.2734 709.653C58.3756 710.017 58.4581 710.287 58.5204 710.463C58.5828 710.639 58.6993 710.954 58.8698 711.409C59.0401 711.863 59.1425 712.141 59.1765 712.244C59.5742 713.357 60.0458 714.352 60.5912 715.227C61.4885 716.681 62.713 718.184 64.2641 719.735C65.8152 721.286 67.318 722.511 68.7726 723.409C69.6475 723.954 70.6421 724.425 71.7556 724.823C71.8579 724.857 72.1362 724.959 72.5906 725.13C73.0451 725.301 73.3605 725.417 73.5365 725.48C73.7126 725.542 73.9828 725.625 74.346 725.727C74.7101 725.829 75.0366 725.901 75.3263 725.941C75.6162 725.98 75.9145 726 76.2212 726C77.2664 726 78.3235 725.71 79.3916 725.131C80.539 724.495 81.232 723.892 81.4706 723.324C81.5961 723.04 81.715 722.651 81.8286 722.156C81.9426 721.662 81.9992 721.261 81.9992 720.955C81.9995 720.795 81.9824 720.676 81.9481 720.596Z" fill="black"/>
</g>
<path d="M70 780C76.6281 780 82 774.628 82 768C82 761.372 76.6281 756 70 756C63.3719 756 58 761.372 58 768C58 774.628 63.3719 780 70 780ZM63.4891 767.742L75.0625 763.28C75.6016 763.088 76.0703 763.411 75.8922 764.222L73.9234 773.503C73.7781 774.159 73.3844 774.323 72.8406 774.009L69.8406 771.797L68.3922 773.189C68.2328 773.348 68.0969 773.484 67.7875 773.484L67.9984 770.433L73.5625 765.413C73.8062 765.202 73.5063 765.08 73.1875 765.291L66.3156 769.617L63.3531 768.694C62.7109 768.487 62.6969 768.052 63.4891 767.742Z" fill="#B3B3B3"/>
<path d="M70 810C63.3742 810 58 815.374 58 822C58 828.626 63.3742 834 70 834C76.6258 834 82 828.626 82 822C82 815.374 76.6258 810 70 810ZM76.0859 823.301C76.6503 823.84 77.2393 824.356 77.7301 824.969C77.9509 825.239 78.1718 825.509 78.319 825.828C78.5399 826.27 78.3436 826.761 77.9509 826.785H75.4969C74.8589 826.834 74.3681 826.589 73.9264 826.147C73.5828 825.804 73.2638 825.436 72.9448 825.067C72.8221 824.92 72.6748 824.773 72.5031 824.675C72.1595 824.454 71.865 824.528 71.6933 824.871C71.4969 825.239 71.4479 825.632 71.4233 826.025C71.3988 826.613 71.227 826.761 70.638 826.785C69.3865 826.834 68.2086 826.663 67.1288 826.025C66.1718 825.46 65.411 824.699 64.773 823.816C63.4969 822.098 62.5399 820.209 61.6564 818.27C61.4601 817.828 61.6074 817.607 62.0982 817.583C62.908 817.558 63.6933 817.558 64.5031 817.583C64.8221 817.583 65.0429 817.779 65.1656 818.074C65.6074 819.129 66.1227 820.16 66.7853 821.092C66.9571 821.337 67.1534 821.583 67.3988 821.779C67.6933 821.975 67.8896 821.902 68.0368 821.583C68.1104 821.387 68.1595 821.166 68.184 820.945C68.2577 820.209 68.2577 819.472 68.135 818.736C68.0613 818.245 67.816 817.951 67.3497 817.853C67.1043 817.804 67.1534 817.73 67.2515 817.583C67.4479 817.362 67.6442 817.215 68.0123 817.215H70.7853C71.227 817.313 71.3252 817.485 71.3742 817.926V821.018C71.3742 821.19 71.4479 821.706 71.7669 821.804C72.0123 821.877 72.184 821.681 72.3313 821.534C72.9939 820.822 73.4601 819.988 73.9018 819.129C74.0982 818.736 74.2454 818.344 74.4172 817.951C74.5399 817.656 74.7117 817.509 75.0552 817.509H77.7301C77.8037 817.509 77.8773 817.509 77.9755 817.534C78.4172 817.607 78.5399 817.804 78.4172 818.245C78.1963 818.933 77.7791 819.521 77.362 820.086C76.9202 820.699 76.4294 821.288 75.9877 821.926C75.546 822.515 75.5706 822.81 76.0859 823.301Z" fill="#B3B3B3"/>
<defs>
<clipPath id="clip0">
<rect width="24" height="24" fill="white" transform="translate(146 69)"/>
</clipPath>
<clipPath id="clip1">
<rect width="24" height="24" fill="white" transform="translate(188 69)"/>
</clipPath>
<clipPath id="clip2">
<rect width="52.026" height="52.026" fill="white" transform="translate(144 135)"/>
</clipPath>
<clipPath id="clip3">
<rect width="50" height="49.9025" fill="white" transform="translate(59 226)"/>
</clipPath>
<clipPath id="clip4">
<rect width="30.069" height="24" fill="white" transform="translate(58 415)"/>
</clipPath>
<clipPath id="clip5">
<rect width="24" height="24" fill="white" transform="translate(58 361)"/>
</clipPath>
<clipPath id="clip6">
<rect width="26.0633" height="24" fill="white" transform="translate(58 307)"/>
</clipPath>
<clipPath id="clip7">
<rect width="24" height="24" fill="white" transform="translate(58 702)"/>
</clipPath>
</defs>
</svg>
